<svg width="1200" height="630" viewBox="0 0 1200 630" fill="none" xmlns="http://www.w3.org/2000/svg">
  <rect width="1200" height="630" rx="32" fill="url(#bg)" />
  <circle cx="1020" cy="124" r="180" fill="url(#glowA)" opacity=".48" />
  <circle cx="180" cy="560" r="180" fill="url(#glowB)" opacity=".3" />
  <rect x="58" y="58" width="1084" height="514" rx="40" fill="#11182F" fill-opacity=".76" stroke="url(#stroke)" stroke-width="2" />
  <g filter="url(#panelShadow)">
    <rect x="78" y="92" width="408" height="446" rx="44" fill="#162042" fill-opacity=".92" />
    <rect x="132" y="160" width="300" height="282" rx="34" fill="#10172F" fill-opacity=".84" />
    <path d="M236 210L168 300L236 390" stroke="#EEF0FF" stroke-width="28" stroke-linecap="round" stroke-linejoin="round" />
    <path d="M340 210L408 300L340 390" stroke="#EEF0FF" stroke-width="28" stroke-linecap="round" stroke-linejoin="round" />
    <path d="M302 176L244 426" stroke="#95E4FF" stroke-width="24" stroke-linecap="round" />
    <circle cx="384" cy="178" r="34" fill="#8C79FF" />
    <path d="M384 146V210M352 178H416" stroke="#FAF9FF" stroke-width="14" stroke-linecap="round" />
    <rect x="168" y="456" width="244" height="22" rx="11" fill="#F3F0FF" fill-opacity=".18" />
    <rect x="168" y="494" width="176" height="22" rx="11" fill="#F3F0FF" fill-opacity=".12" />
  </g>
  <g>
    <rect x="548" y="122" width="214" height="46" rx="23" fill="#EDE9FF" fill-opacity=".1" stroke="#8C79FF" stroke-opacity=".6" />
    <text x="575" y="152" fill="#F6F4FF" font-size="22" font-family="'M PLUS Rounded 1c', 'Hiragino Sans', sans-serif" font-weight="700" letter-spacing=".08em">
      Prompt Hub
    </text>
    <text x="548" y="240" fill="#FAFAFF" font-size="58" font-family="'M PLUS Rounded 1c', 'Hiragino Sans', sans-serif" font-weight="700">
      バイブコーディング向け
    </text>
    <text x="548" y="316" fill="#8FE1FF" font-size="58" font-family="'M PLUS Rounded 1c', 'Hiragino Sans', sans-serif" font-weight="700">
      プロンプト集
    </text>
    <text x="548" y="388" fill="#D6D9E8" font-size="24" font-family="'M PLUS Rounded 1c', 'Hiragino Sans', sans-serif">
      コーディング、レビュー、テスト、設計、デバッグまで
    </text>
    <text x="548" y="426" fill="#D6D9E8" font-size="24" font-family="'M PLUS Rounded 1c', 'Hiragino Sans', sans-serif">
      実務でそのまま貼れる日本語プロンプトをワンタップでコピー
    </text>
    <rect x="548" y="470" width="160" height="52" rx="26" fill="#8C79FF" fill-opacity=".16" stroke="#8C79FF" />
    <text x="578" y="504" fill="#FBFAFF" font-size="22" font-family="'M PLUS Rounded 1c', 'Hiragino Sans', sans-serif" font-weight="700">
      静的サイト
    </text>
    <rect x="724" y="470" width="144" height="52" rx="26" fill="#56D1FF" fill-opacity=".12" stroke="#56D1FF" />
    <text x="752" y="504" fill="#FBFAFF" font-size="22" font-family="'M PLUS Rounded 1c', 'Hiragino Sans', sans-serif" font-weight="700">
      PWA対応
    </text>
  </g>
  <defs>
    <linearGradient id="bg" x1="80" y1="36" x2="1120" y2="620" gradientUnits="userSpaceOnUse">
      <stop stop-color="#090F1E" />
      <stop offset=".48" stop-color="#182341" />
      <stop offset="1" stop-color="#332A68" />
    </linearGradient>
    <linearGradient id="stroke" x1="72" y1="72" x2="1100" y2="566" gradientUnits="userSpaceOnUse">
      <stop stop-color="#8C79FF" />
      <stop offset="1" stop-color="#56D1FF" />
    </linearGradient>
    <radialGradient id="glowA" cx="0" cy="0" r="1" gradientUnits="userSpaceOnUse" gradientTransform="translate(1020 124) rotate(90) scale(180)">
      <stop stop-color="#8C79FF" />
      <stop offset="1" stop-color="#8C79FF" stop-opacity="0" />
    </radialGradient>
    <radialGradient id="glowB" cx="0" cy="0" r="1" gradientUnits="userSpaceOnUse" gradientTransform="translate(180 560) rotate(90) scale(180)">
      <stop stop-color="#56D1FF" />
      <stop offset="1" stop-color="#56D1FF" stop-opacity="0" />
    </radialGradient>
    <filter id="panelShadow" x="40" y="70" width="484" height="500" filterUnits="userSpaceOnUse" color-interpolation-filters="sRGB">
      <feDropShadow dx="0" dy="24" stdDeviation="28" flood-color="#060A15" flood-opacity=".35" />
    </filter>
  </defs>
</svg>
